<svg width="24" height="24" viewBox="0 0 24 24" fill="none" xmlns="http://www.w3.org/2000/svg">
<circle cx="11.5" cy="11.8673" r="11" fill="#1E293B" stroke="white"/>
<rect x="10.9156" y="10.2475" width="2.87905" height="2.41558" transform="rotate(42.3953 10.9156 10.2475)" fill="white"/>
<path d="M12.6767 10.4536L13.041 12.188L10.9164 10.2482L12.6767 10.4536Z" fill="white"/>
<path d="M9.65203 13.7666L9.28772 12.0322L11.4124 13.9719L9.65203 13.7666Z" fill="white"/>
<rect x="9.61746" y="13.9687" width="2.87905" height="2.41558" transform="rotate(42.3953 9.61746 13.9687)" fill="white"/>
<path d="M11.3786 14.1747L11.7429 15.9091L9.61823 13.9694L11.3786 14.1747Z" fill="white"/>
<path d="M8.35388 17.4877L7.98957 15.7533L10.1142 17.693L8.35388 17.4877Z" fill="white"/>
<rect x="7.3277" y="11.8782" width="2.87905" height="2.41558" transform="rotate(42.3953 7.3277 11.8782)" fill="white"/>
<path d="M9.08879 12.0842L9.4531 13.8186L7.32847 11.8789L9.08879 12.0842Z" fill="white"/>
<path d="M6.06414 15.3972L5.69983 13.6628L7.82447 15.6026L6.06414 15.3972Z" fill="white"/>
<rect x="8.62584" y="8.15701" width="2.87905" height="2.41558" transform="rotate(42.3953 8.62584 8.15701)" fill="white"/>
<path d="M10.387 8.36307L10.7513 10.0975L8.62664 8.15774L10.387 8.36307Z" fill="white"/>
<path d="M7.36227 11.6761L6.99796 9.94168L9.12259 11.8814L7.36227 11.6761Z" fill="white"/>
<rect x="12.2138" y="6.52638" width="2.87905" height="2.41558" transform="rotate(42.3953 12.2138 6.52638)" fill="white"/>
<path d="M13.9749 6.73242L14.3392 8.46683L12.2146 6.52709L13.9749 6.73242Z" fill="white"/>
<path d="M10.9502 10.0454L10.5859 8.31101L12.7105 10.2508L10.9502 10.0454Z" fill="white"/>
<rect x="14.5035" y="8.61687" width="2.87905" height="2.41558" transform="rotate(42.3953 14.5035 8.61687)" fill="white"/>
<path d="M16.2646 8.82292L16.6289 10.5573L14.5043 8.61759L16.2646 8.82292Z" fill="white"/>
<path d="M13.24 12.1359L12.8756 10.4015L15.0003 12.3413L13.24 12.1359Z" fill="white"/>
<rect x="13.2054" y="12.338" width="2.87905" height="2.41558" transform="rotate(42.3953 13.2054 12.338)" fill="white"/>
<path d="M14.9665 12.5441L15.3308 14.2785L13.2062 12.3387L14.9665 12.5441Z" fill="white"/>
<path d="M11.9418 15.8571L11.5775 14.1227L13.7021 16.0624L11.9418 15.8571Z" fill="white"/>
<path d="M15.1593 12.4617L16.6593 10.8187L15.4479 14.1518L15.1593 12.4617Z" fill="white"/>
<path d="M7.1433 11.7979L5.63512 13.4333L6.86135 10.1083L7.1433 11.7979Z" fill="white"/>
<path d="M11.9341 16.1642L10.4189 17.7936L13.646 16.3115L11.9341 16.1642Z" fill="white"/>
<path d="M10.4644 8.17612L11.9759 6.5433L8.753 8.03177L10.4644 8.17612Z" fill="white"/>
<path d="M7.79067 15.8053L8.10059 17.3149L6.25924 15.6338L7.79067 15.8053Z" fill="white"/>
<path d="M15.6115 14.3011L16.8405 10.9841L16.7834 17.1233L15.6115 14.3011Z" fill="white"/>
<path d="M10.5239 18.0671L13.721 16.547L10.8452 21.164L10.5239 18.0671Z" fill="white"/>
<path d="M8.5676 7.81271L11.8237 6.4039L5.72179 6.85298L8.5676 7.81271Z" fill="white"/>
<path d="M5.37336 13.3648L6.62663 10.0699L2.31176 13.3732L5.37336 13.3648Z" fill="white"/>
<path d="M16.3177 6.30135L14.4563 8.34013L14.1148 6.74337L16.3177 6.30135Z" fill="white"/>
<path d="M16.4812 6.45068L14.6199 8.48945L16.241 8.68455L16.4812 6.45068Z" fill="white"/>
<path d="M16.6462 6.44004L17.4483 6.24893L16.3988 8.79094L16.6462 6.44004Z" fill="white"/>
<path d="M16.3136 6.12686L16.4329 5.31141L14.0499 6.54517L16.3136 6.12686Z" fill="white"/>
<path d="M16.4911 6.28144L16.5855 5.40338L17.357 6.1077L16.4911 6.28144Z" fill="white"/>
</svg>